<svg height="16" viewBox="0 0 16 16" width="16" xmlns="http://www.w3.org/2000/svg"><path d="m12.52.55-5 5-6.97 6.96 3 3 12-12zm-4 6 4-4 1 1-4 4.05zm-5.75-3.37a3.85 3.85 0 0 1 2.55 2.55 3.85 3.85 0 0 1 2.55-2.55 3.82 3.82 0 0 1 -2.55-2.54 3.82 3.82 0 0 1 -2.55 2.54zm5.73-.63a2 2 0 0 1 1.28-1.28 1.92 1.92 0 0 1 -1.28-1.27 1.88 1.88 0 0 1 -1.27 1.27 1.92 1.92 0 0 1 1.27 1.28zm-6.36 0a1.92 1.92 0 0 1 1.27-1.28 1.88 1.88 0 0 1 -1.27-1.27 1.92 1.92 0 0 1 -1.28 1.27 2 2 0 0 1 1.28 1.28zm12.59 3.67a1.94 1.94 0 0 1 -1.28 1.27 1.94 1.94 0 0 1 1.28 1.27 1.9 1.9 0 0 1 1.27-1.27 1.9 1.9 0 0 1 -1.27-1.27z"/></svg>